<?xml version="1.0" ?><svg id="Layer_1" style="enable-background:new 0 0 512 512;" version="1.1" viewBox="0 0 512 512" xml:space="preserve" xmlns="http://www.w3.org/2000/svg" xmlns:xlink="http://www.w3.org/1999/xlink"><g id="XMLID_131_"><path d="M465.7,6.4h-5.3h-31.1h-5.3h-40v37.8H357h-3.6H128.1V6h-40h-5.3H51.7h-5.3H4.8v499.6h123.4V287.5h255.8   V506h123.4V6.4H465.7z M122,123h-34V49.2h34V123z M51.7,328.1v-79.5h31.1v79.5H51.7z M82.7,333.4v83.3H51.7v-83.3H82.7z    M51.7,243.3v-33.6h31.1v33.6H51.7z M51.7,204.3v-76h31.1v76H51.7z M10.8,128.3h35.5v76H10.8V128.3z M88.1,128.3h34v76h-34V128.3z    M82.7,123H51.7V49.2h31.1V123z M46.3,123H10.8V49.2h35.5V123z M10.8,209.6h35.5v33.6H10.8V209.6z M46.3,248.6v79.5H10.8v-79.5   H46.3z M46.3,333.4v83.3H10.8v-83.3H46.3z M46.3,422.1v36.5H10.8v-36.5H46.3z M51.7,422.1h31.1v36.5H51.7V422.1z M88.1,422.1h34   v36.5h-34V422.1z M88.1,416.8v-83.3h34v83.3H88.1z M88.1,328.1v-79.5h34v79.5H88.1z M88.1,243.3v-33.6h34v33.6H88.1z M122,11.9v32   h-34v-32H122z M82.7,11.9v32H51.7v-32H82.7z M46.3,11.9v32H10.8v-32H46.3z M10.8,500.5V464h35.5v36.5H10.8z M51.7,500.5V464h31.1   v36.5H51.7z M88.1,500.5V464h34v36.5H88.1z M501.2,12.3v32h-35.5v-32H501.2z M501.2,204.7h-35.5v-76h35.5V204.7z M460.3,204.7   h-31.1v-76h31.1V204.7z M390,249h34v79.5h-34V249z M390,333.9h34v83.3h-34V333.9z M429.3,333.9h31.1v83.3h-31.1V333.9z    M429.3,328.5V249h31.1v79.5H429.3z M429.3,243.7V210h31.1v33.6H429.3z M423.9,204.7h-34v-76h34V204.7z M429.3,123.4V49.6h31.1   v73.7H429.3z M423.9,123.4h-34V49.6h34V123.4z M423.9,210v33.6h-34V210H423.9z M390,422.5h34V459h-34V422.5z M429.3,422.5h31.1V459   h-31.1V422.5z M465.7,422.5h35.5V459h-35.5V422.5z M465.7,417.2v-83.3h35.5v83.3H465.7z M465.7,328.5V249h35.5v79.5H465.7z    M465.7,243.7V210h35.5v33.6H465.7z M501.2,123.4h-35.5V49.6h35.5V123.4z M460.3,12.3v32h-31.1v-32H460.3z M423.9,12.3v32h-34v-32   H423.9z M287.8,78.9v26.9h-29.2V78.9H287.8z M258.6,75.4V50.6h29.2v24.8H258.6z M225.8,197v-26.9H255V197H225.8z M255,200.5v26.9   h-29.2v-26.9H255z M287.8,166.6h-29.2v-26.9h29.2V166.6z M291.4,139.7h29.2v26.9h-29.2V139.7z M255,166.6h-29.2v-26.9H255V166.6z    M222.3,166.6H193v-26.9h29.2V166.6z M222.3,170.1V197H193v-26.9H222.3z M258.6,170.1h29.2V197h-29.2V170.1z M291.4,170.1h29.2V197   h-29.2V170.1z M324.2,170.1h29.2V197h-29.2V170.1z M324.2,166.6v-26.9h29.2v26.9H324.2z M324.2,136.2v-26.9h29.2v26.9H324.2z    M320.6,136.2h-29.2v-26.9h29.2V136.2z M287.8,136.2h-29.2v-26.9h29.2V136.2z M255,136.2h-29.2v-26.9H255V136.2z M222.3,136.2H193   v-26.9h29.2V136.2z M189.5,136.2h-29.2v-26.9h29.2V136.2z M189.5,139.7v26.9h-29.2v-26.9H189.5z M189.5,170.1V197h-29.2v-26.9   H189.5z M189.5,200.5v26.9h-29.2v-26.9H189.5z M193,200.5h29.2v26.9H193V200.5z M222.3,230.9v26.9H193v-26.9H222.3z M225.8,230.9   H255v26.9h-29.2V230.9z M258.6,230.9h29.2v26.9h-29.2V230.9z M258.6,227.4v-26.9h29.2v26.9H258.6z M291.4,200.5h29.2v26.9h-29.2   V200.5z M324.2,200.5h29.2v26.9h-29.2V200.5z M357,200.5h22.3v26.9H357V200.5z M357,197v-26.9h22.3V197H357z M357,166.6v-26.9h22.3   v26.9H357z M357,136.2v-26.9h22.3v26.9H357z M357,105.8V78.9h22.3v26.9H357z M353.4,105.8h-29.2V78.9h29.2V105.8z M320.6,105.8   h-29.2V78.9h29.2V105.8z M255,105.8h-29.2V78.9H255V105.8z M222.3,105.8H193V78.9h29.2V105.8z M189.5,105.8h-29.2V78.9h29.2V105.8z    M156.7,105.8h-24.4V78.9h24.4V105.8z M156.7,109.3v26.9h-24.4v-26.9H156.7z M156.7,139.7v26.9h-24.4v-26.9H156.7z M156.7,170.1   V197h-24.4v-26.9H156.7z M156.7,200.5v26.9h-24.4v-26.9H156.7z M156.7,230.9v26.9h-24.4v-26.9H156.7z M160.2,230.9h29.2v26.9h-29.2   V230.9z M189.5,261.3v20.9h-29.2v-20.9H189.5z M193,261.3h29.2v20.9H193V261.3z M225.8,261.3H255v20.9h-29.2V261.3z M258.6,261.3   h29.2v20.9h-29.2V261.3z M291.4,261.3h29.2v20.9h-29.2V261.3z M291.4,257.8v-26.9h29.2v26.9H291.4z M324.2,230.9h29.2v26.9h-29.2   V230.9z M357,230.9h22.3v26.9H357V230.9z M379.3,50.6v24.8H357V50.6H379.3z M353.4,50.6v24.8h-29.2V50.6H353.4z M320.6,75.4h-29.2   V50.6h29.2V75.4z M255,50.6v24.8h-29.2V50.6H255z M222.3,50.6v24.8H193V50.6H222.3z M189.5,75.4h-29.2V50.6h29.2V75.4z M156.7,50.6   v24.8h-24.4V50.6H156.7z M132.2,261.3h24.4v20.9h-24.4V261.3z M324.2,282.3v-20.9h29.2v20.9H324.2z M357,282.3v-20.9h22.3v20.9H357   z M390,500.9v-36.5h34v36.5H390z M429.3,500.9v-36.5h31.1v36.5H429.3z M465.7,500.9v-36.5h35.5v36.5H465.7z" id="XMLID_1262_"/><rect height="27.4" id="XMLID_1380_" width="252.5" x="129.7" y="291.7"/><path d="M129.7,505.6h73.3V322.4h-73.3V505.6z M182.4,335.9h16v12.6h-16V335.9z M182.4,357.6h16v12.6h-16V357.6z    M182.4,379.3h16v12.6h-16V379.3z M182.4,401.1h16v12.6h-16V401.1z M182.4,422.8h16v12.6h-16V422.8z M182.4,444.5h16v12.6h-16   V444.5z M182.4,466.2h16v12.6h-16V466.2z M182.4,487.9h16v12.6h-16V487.9z M134.4,335.9h16v12.6h-16V335.9z M134.4,357.6h16v12.6   h-16V357.6z M134.4,379.3h16v12.6h-16V379.3z M134.4,401.1h16v12.6h-16V401.1z M134.4,422.8h16v12.6h-16V422.8z M134.4,444.5h16   v12.6h-16V444.5z M134.4,466.2h16v12.6h-16V466.2z M134.4,487.9h16v12.6h-16V487.9z" id="XMLID_1383_"/><path d="M308.9,506h73.3V322.8h-73.3V506z M361.6,336.3h16v12.6h-16V336.3z M361.6,358h16v12.6h-16V358z    M361.6,379.8h16v12.6h-16V379.8z M361.6,401.5h16V414h-16V401.5z M361.6,423.2h16v12.6h-16V423.2z M361.6,444.9h16v12.6h-16V444.9   z M361.6,466.6h16v12.6h-16V466.6z M361.6,488.3h16v12.6h-16V488.3z M343.4,323.7h4.4V355h-4.4V323.7z M343.4,360.2h4.4v32.2h-4.4   V360.2z M343.4,397.5h4.4v32.2h-4.4V397.5z M343.4,434.9h4.4V467h-4.4V434.9z M343.4,472.2h4.4v32.2h-4.4V472.2z M313.6,336.3h16   v12.6h-16V336.3z M313.6,358h16v12.6h-16V358z M313.6,379.8h16v12.6h-16V379.8z M313.6,401.5h16V414h-16V401.5z M313.6,423.2h16   v12.6h-16V423.2z M313.6,444.9h16v12.6h-16V444.9z M313.6,466.6h16v12.6h-16V466.6z M313.6,488.3h16v12.6h-16V488.3z" id="XMLID_1404_"/><path d="M307.8,328.5l-103.6,0.1l0,48.4l103.6-0.1L307.8,328.5z M223.3,376l28.8-46.8l31.8,46.8L223.3,376z" id="XMLID_1427_"/><rect height="19" id="XMLID_1428_" width="21.7" x="215.3" y="393.6"/><rect height="19" id="XMLID_1435_" width="21.7" x="215.7" y="420.2"/><rect height="19" id="XMLID_1436_" width="21.7" x="275.6" y="420.2"/><rect height="19" id="XMLID_1437_" width="21.7" x="275.2" y="393.6"/><path d="M204.7,379.3V506h103.6V379.3H204.7z M213.7,391.7h25.5v22.8h-25.5V391.7z M239.7,441h-25.5v-22.8h25.5   V441z M270,500.3h-27v-36.9c0-6.9,5.6-12.5,12.5-12.5h1.9c6.9,0,12.5,5.6,12.5,12.5V500.3z M273.7,391.7h25.5v22.8h-25.5V391.7z    M299.6,441h-25.5v-22.8h25.5V441z" id="XMLID_1152_"/></g></svg>