<?xml version="1.0" ?><svg viewBox="0 0 99 95.47" xmlns="http://www.w3.org/2000/svg"><title/><g data-name="Layer 2" id="Layer_2"><g id="ICONS"><path d="M99,57.91c0-6-14.58-6.35-17.5-6.35S64,51.86,64,57.91c0,6.36,8.62,15.84,15.35,17.67a1.47,1.47,0,0,0,0,.17v4c0,7-6.5,12.75-14.5,12.75s-14.5-5.72-14.5-12.75V20A6.72,6.72,0,1,1,61,25.8a1.5,1.5,0,1,0,1.76,2.43,9.72,9.72,0,1,0-12.42-14.9v-10a1.52,1.52,0,0,0,0-.31H78.15a1.5,1.5,0,0,0,0-3H19.48a1.5,1.5,0,0,0,0,3H47.37a1.52,1.52,0,0,0,0,.31v9.84A9.72,9.72,0,1,0,35.59,28.49a1.5,1.5,0,0,0,1.55-2.57,6.73,6.73,0,1,1,10.19-5.84c0,.09,0,.18,0,.27a1.47,1.47,0,0,0,0,.17v59.2c0,7-6.5,12.75-14.5,12.75s-14.5-5.72-14.5-12.75V75.83C25.2,75,35,64.68,35,57.91c0-6-14.58-6.35-17.5-6.35S0,51.86,0,57.91c0,6.36,8.62,15.84,15.35,17.67a1.47,1.47,0,0,0,0,.17v4c0,8.69,7.85,15.75,17.5,15.75,7.14,0,13.28-3.87,16-9.4,2.72,5.53,8.86,9.4,16,9.4,9.65,0,17.5-7.07,17.5-15.75V75.83C89.2,75,99,64.68,99,57.91Zm-96,0c0-1.2,4.85-3.35,14.5-3.35a43.42,43.42,0,0,1,10.61,1.16c3.08.83,3.89,1.8,3.89,2.19,0,5.88-9.63,15-14.5,15S3,63.78,3,57.91Zm78.5,15c-4.87,0-14.5-9.1-14.5-15,0-1.2,4.85-3.35,14.5-3.35a43.42,43.42,0,0,1,10.61,1.16c3.08.83,3.89,1.8,3.89,2.19C96,63.78,86.37,72.89,81.5,72.89Z"/></g></g></svg>