<?xml version="1.0" ?><svg enable-background="new 0 0 64 64" id="Слой_1" version="1.1" viewBox="0 0 64 64" xml:space="preserve" xmlns="http://www.w3.org/2000/svg" xmlns:xlink="http://www.w3.org/1999/xlink"><g id="row_3"><g id="desk"><rect fill="#3E2723" height="18" width="36" x="6" y="23"/><path d="M6,53H3V23h3V53z M42,23v30h19V23H42z" fill="#6D4C41"/><rect fill="#3E2723" height="11" width="15" x="44" y="30"/><path d="M59,32H44v-2h15V32z M59,39H44v2h15V39z" fill="#A1887F"/><rect fill="#5D4037" height="2" width="36" x="6" y="27"/><rect fill="#A1887F" height="10" width="58" x="3" y="11"/><rect fill="#4E342E" height="10" width="54" x="5" y="11"/><polygon fill="#6D4C41" points="59,14 5,14 5,16 39,16 39,21 41,21 41,16 59,16   "/><path d="M59,30H44v-6h15V30z M59,41H44v9h15V41z" fill="#8D6E63"/><path d="M52.5,26c0,0.6-0.4,1-1,1s-1-0.4-1-1s0.4-1,1-1S52.5,25.4,52.5,26z M51.5,42c-0.6,0-1,0.4-1,1s0.4,1,1,1    s1-0.4,1-1S52.1,42,51.5,42z" fill="#FDD835"/><rect fill="#8D6E63" height="2" width="62" x="1" y="21"/></g></g></svg>