<svg version="1.1" xmlns="http://www.w3.org/2000/svg" xmlns:xlink="http://www.w3.org/1999/xlink" viewBox="0 0 172 172"><g fill="none" fill-rule="nonzero" stroke="none" stroke-width="1" stroke-linecap="butt" stroke-linejoin="miter" stroke-miterlimit="10" stroke-dasharray="" stroke-dashoffset="0" font-family="none" font-weight="none" font-size="none" text-anchor="none" style="mix-blend-mode: normal"><path d="M0,172v-172h172v172z" fill="none"></path><path d="M86,172c-47.49649,0 -86,-38.50351 -86,-86v0c0,-47.49649 38.50351,-86 86,-86v0c47.49649,0 86,38.50351 86,86v0c0,47.49649 -38.50351,86 -86,86z" fill="#ffffff"></path><g fill="#999999"><path d="M86,0c-47.4978,0 -86,38.5022 -86,86c0,47.4978 38.5022,86 86,86c47.4978,0 86,-38.5022 86,-86c0,-47.4978 -38.5022,-86 -86,-86zM86,23.65c15.437,0 27.95,12.513 27.95,27.95c0,15.437 -12.513,27.95 -27.95,27.95c-15.437,0 -27.95,-12.513 -27.95,-27.95c0,-15.437 12.513,-27.95 27.95,-27.95zM86,154.8c-23.822,0 -44.806,-12.1088 -57.1556,-30.5042c9.6406,-14.018 40.3512,-21.0958 57.1556,-21.0958c16.8044,0 47.515,7.0778 57.1556,21.0958c-12.3496,18.3954 -33.3336,30.5042 -57.1556,30.5042z"></path></g></g></svg>