<?xml version="1.0" encoding="utf-8"?>
<!-- Svg Vector Icons : http://www.onlinewebfonts.com/icon -->
<!DOCTYPE svg PUBLIC "-//W3C//DTD SVG 1.1//EN" "http://www.w3.org/Graphics/SVG/1.1/DTD/svg11.dtd">
<svg version="1.1" xmlns="http://www.w3.org/2000/svg" xmlns:xlink="http://www.w3.org/1999/xlink" x="0px" y="0px" viewBox="0 0 1000 1000" enable-background="new 0 0 1000 1000" xml:space="preserve" fill="#333333">
<metadata> Svg Vector Icons : http://www.onlinewebfonts.com/icon </metadata>
<g><path d="M935.5,936.4V227.8h-272V10H64.4v926.4H10V990h980v-53.6H935.5z M118,936.4V63.6h491.9v872.8H118z M663.5,281.4h218.4v655H663.5V281.4z"/><path d="M185.2,199.1h141.6V312H185.2V199.1z"/><path d="M395.5,199.1h141.6V312H395.5V199.1z"/><path d="M185.2,388.4h141.6v112.9H185.2V388.4z"/><path d="M395.5,388.4h141.6v112.9H395.5V388.4z"/><path d="M185.2,575.7h141.6v112.9H185.2V575.7z"/><path d="M395.5,575.7h141.6v112.9H395.5V575.7z"/><path d="M738.1,388.9H807v112.9h-68.9V388.9z"/><path d="M738.1,575.7H807v112.9h-68.9V575.7z"/></g>
</svg>